<?xml version="1.0" encoding="UTF-8" standalone="no"?>
<!-- Creator: CorelDRAW Home & Student 2019 -->

<svg
   xmlns:osb="http://www.openswatchbook.org/uri/2009/osb"
   xmlns:dc="http://purl.org/dc/elements/1.1/"
   xmlns:cc="http://creativecommons.org/ns#"
   xmlns:rdf="http://www.w3.org/1999/02/22-rdf-syntax-ns#"
   xmlns:svg="http://www.w3.org/2000/svg"
   xmlns="http://www.w3.org/2000/svg"
   xmlns:sodipodi="http://sodipodi.sourceforge.net/DTD/sodipodi-0.dtd"
   xmlns:inkscape="http://www.inkscape.org/namespaces/inkscape"
   xml:space="preserve"
   width="12.063101mm"
   height="13.108701mm"
   version="1.1"
   style="clip-rule:evenodd;fill-rule:evenodd;image-rendering:optimizeQuality;shape-rendering:geometricPrecision;text-rendering:geometricPrecision"
   viewBox="0 0 1206.3101 1310.87"
   id="svg3987"
   sodipodi:docname="Logo2.svg"
   inkscape:version="0.92.4 5da689c313, 2019-01-14"><metadata
     id="metadata3991"><rdf:RDF><cc:Work
         rdf:about=""><dc:format>image/svg+xml</dc:format><dc:type
           rdf:resource="http://purl.org/dc/dcmitype/StillImage" /><dc:title></dc:title></cc:Work></rdf:RDF></metadata><sodipodi:namedview
     pagecolor="#ffffff"
     bordercolor="#666666"
     borderopacity="1"
     objecttolerance="10"
     gridtolerance="10"
     guidetolerance="10"
     inkscape:pageopacity="0"
     inkscape:pageshadow="2"
     inkscape:window-width="2511"
     inkscape:window-height="1384"
     id="namedview3989"
     showgrid="false"
     showguides="true"
     inkscape:guide-bbox="true"
     fit-margin-top="0"
     fit-margin-left="0"
     fit-margin-right="0"
     fit-margin-bottom="0"
     inkscape:zoom="4.7378944"
     inkscape:cx="0.11268632"
     inkscape:cy="30.447982"
     inkscape:window-x="1969"
     inkscape:window-y="28"
     inkscape:window-maximized="1"
     inkscape:current-layer="svg3987" /><defs
     id="defs3940"><linearGradient
       id="linearGradient6554"
       osb:paint="solid"><stop
         style="stop-color:#ff0000;stop-opacity:1;"
         offset="0"
         id="stop6552" /></linearGradient><linearGradient
       id="linearGradient5096"
       osb:paint="solid"><stop
         style="stop-color:#659600;stop-opacity:1;"
         offset="0"
         id="stop5094" /></linearGradient><style
       type="text/css"
       id="style3935"><![CDATA[
    .str0 {stroke:white;stroke-width:26.46;stroke-miterlimit:22.9256}
    .str1 {stroke:black;stroke-width:17.64;stroke-miterlimit:22.9256}
    .fil6 {fill:none}
    .fil8 {fill:none;fill-rule:nonzero}
    .fil5 {fill:#071CFA;fill-rule:nonzero}
    .fil4 {fill:#4627BB;fill-rule:nonzero}
    .fil3 {fill:#752F8C;fill-rule:nonzero}
    .fil2 {fill:#93346D;fill-rule:nonzero}
    .fil1 {fill:#C33C3D;fill-rule:nonzero}
    .fil0 {fill:#FE4602;fill-rule:nonzero}
    .fil7 {fill:white;fill-rule:nonzero}
   ]]></style><clipPath
       id="id0"><path
         d="m 11786.75,11007.13 h -234.8 v -524.96 h -827.64 c -16.51,0 -32.1,-3.05 -46.47,-9.47 -14.37,-6.12 -26.91,-14.37 -37.3,-25.07 -10.4,-10.4 -18.65,-22.63 -24.46,-37 -6.12,-14.37 -9.18,-29.66 -9.18,-45.86 v -642.05 h 232.98 v 524.95 h 712.07 v -524.95 h 234.8 z"
         id="path3937"
         inkscape:connector-curvature="0" /></clipPath></defs><g
     id="g4881"
     clip-path="url(#clipPath4883)"
     transform="translate(-11187.483,-5776.88)"><g
       inkscape:label="Clip"
       id="g4879"><g
         clip-path="url(#clipPath4861)"
         id="g4859"><g
           id="g4857"
           inkscape:label="Clip"><g
             id="_908998616"
             transform="translate(593.81253,-3932.61)">
   <g
   id="g3943">
   </g>
   <g
   clip-path="url(#id0)"
   id="g3953">
    <g
   id="_908999600">
     <polygon
   class="fil0"
   points="11786.75,10043.82 10606.9,10043.82 10606.9,9722.72 11786.75,9722.72 "
   id="polygon3945"
   style="fill:#fe4602;fill-rule:nonzero" />
     <polygon
   id="_1"
   class="fil1"
   points="11786.75,10257.89 10606.9,10257.89 10606.9,9936.79 11786.75,9936.79 "
   style="fill:#c33c3d;fill-rule:nonzero" />
     <polygon
   id="_2"
   class="fil2"
   points="11786.75,10471.96 10606.9,10471.96 10606.9,10150.86 11786.75,10150.86 "
   style="fill:#93346d;fill-rule:nonzero" />
     <polygon
   id="_3"
   class="fil3"
   points="11786.75,10686.03 10606.9,10686.03 10606.9,10364.92 11786.75,10364.93 "
   style="fill:#752f8c;fill-rule:nonzero" />
     <polygon
   id="_4"
   class="fil4"
   points="11786.75,10900.1 10606.9,10900.1 10606.9,10578.99 11786.75,10578.99 "
   style="fill:#4627bb;fill-rule:nonzero" />
     <polygon
   id="_5"
   class="fil5"
   points="11786.75,11007.13 10606.9,11007.13 10606.9,10793.06 11786.75,10793.06 "
   style="fill:#071cfa;fill-rule:nonzero" />
    </g>
   </g>
   <path
   class="fil6"
   d="m 11786.75,11007.13 h -234.8 v -524.96 h -827.64 c -16.51,0 -32.1,-3.05 -46.47,-9.47 -14.37,-6.12 -26.91,-14.37 -37.3,-25.07 -10.4,-10.4 -18.65,-22.63 -24.46,-37 -6.12,-14.37 -9.18,-29.66 -9.18,-45.86 v -642.05 h 232.98 v 524.95 h 712.07 v -524.95 h 234.8 z"
   id="path3955"
   inkscape:connector-curvature="0"
   style="fill:none" />
   <path
   id="_6"
   class="fil6 str0"
   d="m 11786.75,11007.13 h -234.8 v -524.96 h -827.64 c -16.51,0 -32.1,-3.05 -46.47,-9.47 -14.37,-6.12 -26.91,-14.37 -37.3,-25.07 -10.4,-10.4 -18.65,-22.63 -24.46,-37 -6.12,-14.37 -9.18,-29.66 -9.18,-45.86 v -642.05 h 232.98 v 524.95 h 712.07 v -524.95 h 234.8 z"
   inkscape:connector-curvature="0"
   style="fill:none;stroke:#ffffff;stroke-width:26.45999908;stroke-miterlimit:22.92560005" />
  </g></g></g></g></g></svg>