<?xml version="1.0" encoding="UTF-8" standalone="no"?>
<!-- Creator: CorelDRAW Home & Student 2019 -->

<svg
   xmlns:osb="http://www.openswatchbook.org/uri/2009/osb"
   xmlns:dc="http://purl.org/dc/elements/1.1/"
   xmlns:cc="http://creativecommons.org/ns#"
   xmlns:rdf="http://www.w3.org/1999/02/22-rdf-syntax-ns#"
   xmlns:svg="http://www.w3.org/2000/svg"
   xmlns="http://www.w3.org/2000/svg"
   xmlns:sodipodi="http://sodipodi.sourceforge.net/DTD/sodipodi-0.dtd"
   xmlns:inkscape="http://www.inkscape.org/namespaces/inkscape"
   xml:space="preserve"
   width="91.080551mm"
   height="13.108701mm"
   version="1.1"
   style="clip-rule:evenodd;fill-rule:evenodd;image-rendering:optimizeQuality;shape-rendering:geometricPrecision;text-rendering:geometricPrecision"
   viewBox="0 0 9108.0551 1310.87"
   id="svg3987"
   sodipodi:docname="Logo2_Text.svg"
   inkscape:version="0.92.4 5da689c313, 2019-01-14"><metadata
     id="metadata3991"><rdf:RDF><cc:Work
         rdf:about=""><dc:format>image/svg+xml</dc:format><dc:type
           rdf:resource="http://purl.org/dc/dcmitype/StillImage" /><dc:title></dc:title></cc:Work></rdf:RDF></metadata><sodipodi:namedview
     pagecolor="#ffffff"
     bordercolor="#666666"
     borderopacity="1"
     objecttolerance="10"
     gridtolerance="10"
     guidetolerance="10"
     inkscape:pageopacity="0"
     inkscape:pageshadow="2"
     inkscape:window-width="2511"
     inkscape:window-height="1384"
     id="namedview3989"
     showgrid="false"
     showguides="true"
     inkscape:guide-bbox="true"
     fit-margin-top="0"
     fit-margin-left="0"
     fit-margin-right="0"
     fit-margin-bottom="0"
     inkscape:zoom="4.7378944"
     inkscape:cx="188.30094"
     inkscape:cy="-35.981852"
     inkscape:window-x="1969"
     inkscape:window-y="28"
     inkscape:window-maximized="1"
     inkscape:current-layer="svg3987" /><defs
     id="defs3940"><linearGradient
       id="linearGradient6554"
       osb:paint="solid"><stop
         style="stop-color:#ff0000;stop-opacity:1;"
         offset="0"
         id="stop6552" /></linearGradient><linearGradient
       id="linearGradient5096"
       osb:paint="solid"><stop
         style="stop-color:#659600;stop-opacity:1;"
         offset="0"
         id="stop5094" /></linearGradient><style
       type="text/css"
       id="style3935"><![CDATA[
    .str0 {stroke:white;stroke-width:26.46;stroke-miterlimit:22.9256}
    .str1 {stroke:black;stroke-width:17.64;stroke-miterlimit:22.9256}
    .fil6 {fill:none}
    .fil8 {fill:none;fill-rule:nonzero}
    .fil5 {fill:#071CFA;fill-rule:nonzero}
    .fil4 {fill:#4627BB;fill-rule:nonzero}
    .fil3 {fill:#752F8C;fill-rule:nonzero}
    .fil2 {fill:#93346D;fill-rule:nonzero}
    .fil1 {fill:#C33C3D;fill-rule:nonzero}
    .fil0 {fill:#FE4602;fill-rule:nonzero}
    .fil7 {fill:white;fill-rule:nonzero}
   ]]></style><clipPath
       id="id0"><path
         d="m 11786.75,11007.13 h -234.8 v -524.96 h -827.64 c -16.51,0 -32.1,-3.05 -46.47,-9.47 -14.37,-6.12 -26.91,-14.37 -37.3,-25.07 -10.4,-10.4 -18.65,-22.63 -24.46,-37 -6.12,-14.37 -9.18,-29.66 -9.18,-45.86 v -642.05 h 232.98 v 524.95 h 712.07 v -524.95 h 234.8 z"
         id="path3937"
         inkscape:connector-curvature="0" /></clipPath></defs><g
     id="g4881"
     clip-path="url(#clipPath4883)"
     transform="translate(-6646.4654,-5776.88)"><g
       inkscape:label="Clip"
       id="g4879"><g
         clip-path="url(#clipPath4861)"
         id="g4859"><g
           id="g4857"
           inkscape:label="Clip"><g
             id="_908998616"
             transform="translate(593.81253,-3932.61)">
   <g
   id="g3943">
   </g>
   <g
   clip-path="url(#id0)"
   id="g3953">
    <g
   id="_908999600">
     <polygon
   class="fil0"
   points="10606.9,9722.72 11786.75,9722.72 11786.75,10043.82 10606.9,10043.82 "
   id="polygon3945"
   style="fill:#fe4602;fill-rule:nonzero" />
     <polygon
   id="_1"
   class="fil1"
   points="10606.9,9936.79 11786.75,9936.79 11786.75,10257.89 10606.9,10257.89 "
   style="fill:#c33c3d;fill-rule:nonzero" />
     <polygon
   id="_2"
   class="fil2"
   points="10606.9,10150.86 11786.75,10150.86 11786.75,10471.96 10606.9,10471.96 "
   style="fill:#93346d;fill-rule:nonzero" />
     <polygon
   id="_3"
   class="fil3"
   points="10606.9,10364.92 11786.75,10364.93 11786.75,10686.03 10606.9,10686.03 "
   style="fill:#752f8c;fill-rule:nonzero" />
     <polygon
   id="_4"
   class="fil4"
   points="10606.9,10578.99 11786.75,10578.99 11786.75,10900.1 10606.9,10900.1 "
   style="fill:#4627bb;fill-rule:nonzero" />
     <polygon
   id="_5"
   class="fil5"
   points="10606.9,10793.06 11786.75,10793.06 11786.75,11007.13 10606.9,11007.13 "
   style="fill:#071cfa;fill-rule:nonzero" />
    </g>
   </g>
   <path
   class="fil6"
   d="m 11786.75,11007.13 h -234.8 v -524.96 h -827.64 c -16.51,0 -32.1,-3.05 -46.47,-9.47 -14.37,-6.12 -26.91,-14.37 -37.3,-25.07 -10.4,-10.4 -18.65,-22.63 -24.46,-37 -6.12,-14.37 -9.18,-29.66 -9.18,-45.86 v -642.05 h 232.98 v 524.95 h 712.07 v -524.95 h 234.8 z"
   id="path3955"
   inkscape:connector-curvature="0"
   style="fill:none" />
   <path
   id="_6"
   class="fil6 str0"
   d="m 11786.75,11007.13 h -234.8 v -524.96 h -827.64 c -16.51,0 -32.1,-3.05 -46.47,-9.47 -14.37,-6.12 -26.91,-14.37 -37.3,-25.07 -10.4,-10.4 -18.65,-22.63 -24.46,-37 -6.12,-14.37 -9.18,-29.66 -9.18,-45.86 v -642.05 h 232.98 v 524.95 h 712.07 v -524.95 h 234.8 z"
   inkscape:connector-curvature="0"
   style="fill:none;stroke:#ffffff;stroke-width:26.45999908;stroke-miterlimit:22.92560005" />
  </g></g></g></g></g><g
     aria-label="Audio"
     style="font-style:normal;font-variant:normal;font-weight:normal;font-stretch:normal;font-size:1411.11096191px;line-height:1.25;font-family:Audiowide;-inkscape-font-specification:Audiowide;letter-spacing:0px;word-spacing:0px;fill:#ffffff;fill-opacity:1;stroke:#000000;stroke-width:26.45833206;stroke-opacity:1"
     id="text948"
     transform="translate(-424.02679,-7.6448005)"><path
       d="M 1425.3092,1305.2856 H 1246.1643 V 1062.7509 H 616.4009 v 242.5347 H 437.25596 V 811.259 q 0,-108.17598 37.20702,-199.12649 37.20703,-90.95052 103.35286,-156.40732 66.14582,-65.45681 156.40731,-101.97482 90.2615,-36.51801 197.05945,-36.51801 h 403.7651 q 18.6036,0 35.14,6.89019 16.5365,6.89019 28.9388,19.29254 12.4024,12.40234 19.2925,28.9388 6.8902,16.53645 6.8902,35.13997 z M 616.4009,883.606 h 629.7634 V 496.37731 H 931.2826 q -8.26823,0 -35.13997,2.75608 -26.18273,2.06705 -61.3227,11.71332 -34.45095,9.64627 -73.03601,29.62782 -38.58507,19.98155 -70.96896,55.12152 -32.3839,35.13997 -53.74349,88.19443 Q 616.4009,736.15593 616.4009,811.259 Z"
       style="fill:#ffffff;fill-opacity:1;stroke:#000000;stroke-width:26.45833206;stroke-opacity:1"
       id="path963"
       inkscape:connector-curvature="0" /><path
       d="m 2424.3868,1215.0242 q 0,19.2925 -6.8902,35.8289 -6.8902,16.5365 -19.2925,28.9388 -11.7134,11.7134 -28.2498,18.6036 -15.8475,6.8901 -34.451,6.8901 h -405.1432 q -33.0729,0 -70.9689,-7.5792 -37.207,-7.5792 -73.7251,-24.1156 -36.518,-17.2255 -70.9689,-42.7192 -33.7619,-26.1827 -59.2556,-62.7007 -25.4938,-37.2071 -41.3412,-85.4384 -15.1584,-48.2313 -15.1584,-108.86501 V 560.45608 h 179.1449 v 413.41141 q 0,35.14001 11.7134,63.38971 12.4023,27.5608 33.0729,47.5424 20.6705,19.9815 48.2313,31.0058 28.2498,10.3353 60.6337,10.3353 h 313.5036 V 560.45608 h 179.145 z"
       style="fill:#ffffff;fill-opacity:1;stroke:#000000;stroke-width:26.45833206;stroke-opacity:1"
       id="path965"
       inkscape:connector-curvature="0" /><path
       d="m 3409.6839,1053.7937 q 0,46.1643 -11.7133,83.3713 -11.7134,36.518 -31.0059,64.7678 -19.2925,27.5608 -44.7862,47.5423 -25.4937,19.2925 -53.7435,31.6949 -27.5608,12.4023 -56.4996,18.6035 -28.2498,5.5121 -53.7435,5.5121 H 2835.042 q -46.1643,0 -82.6823,-11.7133 -36.518,-11.7133 -64.7678,-31.0058 -27.5607,-19.9816 -47.5423,-45.4753 -19.2925,-25.4937 -31.6949,-53.0545 -12.4023,-28.2497 -18.6035,-56.4995 -5.5121,-28.9388 -5.5121,-53.7435 V 811.259 q 0,-68.9019 24.8047,-116.44421 25.4937,-48.23133 62.7007,-77.85915 37.896,-30.31684 81.9933,-43.4082 44.0972,-13.09136 81.3042,-13.09136 h 323.1499 V 739.60103 H 2836.42 q -35.8289,0 -54.4325,18.60351 -18.6035,17.91449 -18.6035,53.05446 v 241.1567 q 0,36.518 17.9145,55.1215 18.6035,18.6035 53.7435,18.6035 h 323.1499 q 36.518,0 54.4325,-18.6035 17.9145,-18.6035 17.9145,-53.7435 V 245.57439 h 179.145 z"
       style="fill:#ffffff;fill-opacity:1;stroke:#000000;stroke-width:26.45833206;stroke-opacity:1"
       id="path967"
       inkscape:connector-curvature="0" /><path
       d="M 3762.4618,407.49386 H 3583.3169 V 245.57439 h 179.1449 z m 0,897.79174 H 3583.3169 V 560.45608 h 179.1449 z"
       style="fill:#ffffff;fill-opacity:1;stroke:#000000;stroke-width:26.45833206;stroke-opacity:1"
       id="path969"
       inkscape:connector-curvature="0" /><path
       d="m 4744.3139,1053.7937 q 0,46.1643 -11.7133,83.3713 -11.7133,36.518 -31.0058,64.7678 -19.2926,27.5608 -44.7863,47.5423 -25.4937,19.2925 -53.7435,31.6949 -27.5607,12.4023 -56.4995,18.6035 -28.2498,5.5121 -53.7435,5.5121 h -323.1499 q -37.207,0 -81.3043,-13.0913 -44.0972,-13.0914 -81.9932,-42.7192 -37.2071,-30.3168 -62.7008,-77.8591 -24.8046,-48.2314 -24.8046,-117.8223 V 811.259 q 0,-68.9019 24.8046,-116.44421 25.4937,-48.23133 62.7008,-77.85915 37.896,-30.31684 81.9932,-43.4082 44.0973,-13.09136 81.3043,-13.09136 h 323.1499 q 68.9019,0 117.1332,24.80468 48.2314,24.80469 77.8592,62.70074 29.6278,37.20702 42.7192,81.30424 13.7803,44.09722 13.7803,81.99326 z M 4565.169,812.63704 q 0,-37.20703 -18.6035,-55.12152 -18.6035,-17.91449 -53.7435,-17.91449 h -321.7719 q -35.829,0 -54.4325,18.60351 -18.6035,17.91449 -18.6035,53.05446 v 242.5347 q 0,35.14 18.6035,53.7435 18.6035,18.6035 54.4325,18.6035 h 321.7719 q 36.518,0 54.4325,-18.6035 17.9145,-18.6035 17.9145,-53.7435 z"
       style="fill:#ffffff;fill-opacity:1;stroke:#000000;stroke-width:26.45833206;stroke-opacity:1"
       id="path971"
       inkscape:connector-curvature="0" /></g><g
     aria-label="Live"
     style="font-style:normal;font-variant:normal;font-weight:normal;font-stretch:normal;font-size:1411.11096191px;line-height:1.25;font-family:Audiowide;-inkscape-font-specification:Audiowide;letter-spacing:0px;word-spacing:0px;fill:#ffffff;fill-opacity:1;stroke:#000000;stroke-width:26.45833206;stroke-opacity:1"
     id="text952"
     transform="translate(-424.02658,-9.0229005)"><path
       d="m 7299.5219,1305.2856 h -817.1765 q -19.2926,0 -35.829,-6.8901 -16.5365,-6.8902 -28.9388,-18.6036 -11.7134,-12.4023 -18.6035,-28.9388 -6.8902,-16.5364 -6.8902,-35.8289 V 317.23236 h 179.1449 v 808.90834 h 728.2931 z"
       style="fill:#ffffff;fill-opacity:1;stroke:#000000;stroke-width:26.45833206;stroke-opacity:1"
       id="path954"
       inkscape:connector-curvature="0" /><path
       d="M 7593.044,407.49386 H 7413.899 V 245.57439 h 179.145 z m 0,897.79174 H 7413.899 V 560.45608 h 179.145 z"
       style="fill:#ffffff;fill-opacity:1;stroke:#000000;stroke-width:26.45833206;stroke-opacity:1"
       id="path956"
       inkscape:connector-curvature="0" /><path
       d="m 8653.4443,560.45608 q -30.3168,94.39561 -70.969,186.03514 -40.6521,91.63953 -93.7065,175.01083 -52.3655,82.68225 -117.8223,153.65125 -64.7678,70.2799 -144.005,121.9564 -78.5481,50.9874 -171.5657,80.6152 -92.3286,28.9388 -200.5045,28.9388 -18.6036,0 -35.14,-6.8902 -16.5365,-6.8902 -28.9388,-18.6035 -12.4024,-12.4024 -19.2926,-28.2498 -6.8901,-16.5365 -6.8901,-35.14 V 560.45608 h 179.1449 v 560.17242 q 65.4568,0 125.4015,-28.2497 60.6336,-28.2498 114.3771,-74.4141 53.7435,-46.85328 99.2188,-106.10892 46.1642,-59.25563 81.9932,-121.26735 35.829,-62.70073 60.6337,-122.64538 25.4937,-59.94466 37.8961,-107.48697 z"
       style="fill:#ffffff;fill-opacity:1;stroke:#000000;stroke-width:26.45833206;stroke-opacity:1"
       id="path958"
       inkscape:connector-curvature="0" /><path
       d="m 9518.8521,807.12489 q 0,37.20703 -13.0914,80.61523 -13.0913,42.71918 -42.7191,79.9262 -28.9388,36.51798 -76.4812,61.32268 -46.8533,24.8047 -114.3771,24.8047 H 8949.0334 V 883.606 h 323.1499 q 36.518,0 56.4995,-22.04861 19.9816,-22.73762 19.9816,-55.81054 0,-35.13997 -22.7376,-55.12152 -22.0486,-19.98155 -53.7435,-19.98155 h -323.1499 q -36.518,0 -56.4996,22.73763 -19.9816,22.0486 -19.9816,55.12152 v 250.11387 q 0,35.829 22.0487,55.8106 22.7376,19.9815 55.8105,19.9815 h 321.7719 v 170.8767 h -323.1499 q -37.2071,0 -80.6153,-13.0913 -42.7191,-13.0914 -79.9262,-42.0302 -36.518,-29.6278 -61.3227,-76.4811 -24.8047,-47.5423 -24.8047,-115.0662 V 807.12489 q 0,-37.20703 13.0914,-79.92621 13.0914,-43.4082 42.0302,-79.9262 29.6278,-37.20703 76.4811,-62.01172 47.5423,-24.80468 115.0662,-24.80468 h 323.1499 q 37.207,0 79.9262,13.09136 43.4082,13.09136 79.9262,42.71918 37.207,28.9388 62.0117,76.48111 24.8047,46.8533 24.8047,114.37716 z"
       style="fill:#ffffff;fill-opacity:1;stroke:#000000;stroke-width:26.45833206;stroke-opacity:1"
       id="path960"
       inkscape:connector-curvature="0" /></g></svg>