<?xml version="1.0" encoding="UTF-8" standalone="no"?>
<!-- Created with Inkscape (http://www.inkscape.org/) -->

<svg
   xmlns:dc="http://purl.org/dc/elements/1.1/"
   xmlns:cc="http://creativecommons.org/ns#"
   xmlns:rdf="http://www.w3.org/1999/02/22-rdf-syntax-ns#"
   xmlns:svg="http://www.w3.org/2000/svg"
   xmlns="http://www.w3.org/2000/svg"
   xmlns:sodipodi="http://sodipodi.sourceforge.net/DTD/sodipodi-0.dtd"
   xmlns:inkscape="http://www.inkscape.org/namespaces/inkscape"
   width="75.448647mm"
   height="9.9034805mm"
   viewBox="0 0 75.448647 9.9034805"
   version="1.1"
   id="svg8"
   inkscape:version="0.92.4 5da689c313, 2019-01-14"
   sodipodi:docname="Logo_Text.svg">
  <defs
     id="defs2" />
  <sodipodi:namedview
     id="base"
     pagecolor="#000000"
     bordercolor="#666666"
     borderopacity="1.0"
     inkscape:pageopacity="0"
     inkscape:pageshadow="2"
     inkscape:zoom="3.0255672"
     inkscape:cx="49.647649"
     inkscape:cy="-5.8202073"
     inkscape:document-units="mm"
     inkscape:current-layer="layer1"
     showgrid="false"
     showguides="true"
     inkscape:guide-bbox="true"
     inkscape:window-width="2512"
     inkscape:window-height="1384"
     inkscape:window-x="48"
     inkscape:window-y="28"
     inkscape:window-maximized="1"
     fit-margin-top="0"
     fit-margin-left="0"
     fit-margin-right="0"
     fit-margin-bottom="0">
    <sodipodi:guide
       position="-25.147785,-25.615254"
       orientation="0,1"
       id="guide64"
       inkscape:locked="false" />
    <sodipodi:guide
       position="-24.081115,-27.393034"
       orientation="0,1"
       id="guide66"
       inkscape:locked="false" />
    <sodipodi:guide
       position="-18.979654,-22.492544"
       orientation="1,0"
       id="guide68"
       inkscape:locked="false" />
    <sodipodi:guide
       position="-19.675308,-31.458744"
       orientation="0,1"
       id="guide100"
       inkscape:locked="false" />
    <sodipodi:guide
       position="-19.412505,-21.580464"
       orientation="0,1"
       id="guide102"
       inkscape:locked="false" />
  </sodipodi:namedview>
  <metadata
     id="metadata5">
    <rdf:RDF>
      <cc:Work
         rdf:about="">
        <dc:format>image/svg+xml</dc:format>
        <dc:type
           rdf:resource="http://purl.org/dc/dcmitype/StillImage" />
        <dc:title></dc:title>
      </cc:Work>
    </rdf:RDF>
  </metadata>
  <g
     inkscape:label="Ebene 1"
     inkscape:groupmode="layer"
     id="layer1"
     transform="translate(-45.244452,-19.115446)">
    <g
       aria-label="Audio"
       style="font-style:normal;font-variant:normal;font-weight:normal;font-stretch:normal;font-size:10.58333302px;line-height:1.25;font-family:Audiowide;-inkscape-font-specification:Audiowide;letter-spacing:0px;word-spacing:0px;fill:#ffffff;fill-opacity:1;stroke:none;stroke-width:0.26458332"
       id="text12">
      <path
         d="m 52.654852,29.002094 h -1.343587 v -1.81901 h -4.723226 v 1.81901 h -1.343587 v -3.7052 q 0,-0.81132 0.279053,-1.493449 0.279053,-0.682129 0.775146,-1.173055 0.496094,-0.490926 1.173055,-0.764811 0.676962,-0.273885 1.477946,-0.273885 h 3.028239 q 0.139526,0 0.26355,0.05168 0.124023,0.05168 0.217041,0.144694 0.09302,0.09302 0.144694,0.217041 0.05168,0.124023 0.05168,0.263549 z m -6.066813,-3.162597 h 4.723226 v -2.904216 h -2.361613 q -0.06201,0 -0.26355,0.02067 -0.19637,0.0155 -0.45992,0.08785 -0.258382,0.07235 -0.54777,0.222208 -0.289388,0.149862 -0.532267,0.413412 -0.242879,0.26355 -0.403076,0.661458 -0.15503,0.392741 -0.15503,0.956014 z"
         style="stroke-width:0.26458332;fill:#ffffff"
         id="path253" />
      <path
         d="m 60.147935,28.325133 q 0,0.144694 -0.05168,0.268717 -0.05168,0.124024 -0.144694,0.217041 -0.08785,0.08785 -0.211874,0.139527 -0.118856,0.05168 -0.258382,0.05168 h -3.038574 q -0.248047,0 -0.532267,-0.05684 -0.279053,-0.05684 -0.552938,-0.180867 -0.273885,-0.129191 -0.532267,-0.320394 -0.253215,-0.196371 -0.444418,-0.470256 -0.191202,-0.279052 -0.310058,-0.640787 -0.113688,-0.361735 -0.113688,-0.816488 v -3.100586 h 1.343587 v 3.100586 q 0,0.26355 0.08785,0.475423 0.09302,0.206706 0.248047,0.356567 0.155029,0.149862 0.361735,0.232544 0.211873,0.07752 0.454752,0.07752 h 2.351278 v -4.242635 h 1.343587 z"
         style="stroke-width:0.26458332;fill:#ffffff"
         id="path255" />
      <path
         d="m 67.537664,27.115905 q 0,0.346232 -0.08785,0.625284 -0.08785,0.273885 -0.232544,0.485759 -0.144694,0.206706 -0.335896,0.356567 -0.191203,0.144694 -0.403077,0.237712 -0.206705,0.09302 -0.423746,0.139526 -0.211874,0.04134 -0.403077,0.04134 H 63.22785 q -0.346232,0 -0.620117,-0.08785 -0.273885,-0.08785 -0.485759,-0.232544 -0.206705,-0.149861 -0.356567,-0.341064 -0.144694,-0.191203 -0.237712,-0.397909 -0.09302,-0.211873 -0.139526,-0.423746 -0.04134,-0.217041 -0.04134,-0.403076 v -1.819011 q 0,-0.516764 0.186035,-0.873331 0.191203,-0.361736 0.470255,-0.583944 0.284221,-0.227376 0.61495,-0.325562 0.330729,-0.09819 0.609782,-0.09819 h 2.423624 v 1.343587 h -2.413289 q -0.268717,0 -0.408244,0.139527 -0.139526,0.134358 -0.139526,0.397908 v 1.808675 q 0,0.273885 0.134359,0.413412 0.139526,0.139526 0.403076,0.139526 h 2.423624 q 0.273886,0 0.408244,-0.139526 0.134359,-0.139527 0.134359,-0.403076 v -6.061646 h 1.343587 z"
         style="stroke-width:0.26458332;fill:#ffffff"
         id="path257" />
      <path
         d="M 70.183498,22.268655 H 68.83991 v -1.214396 h 1.343588 z m 0,6.733439 H 68.83991 v -5.586222 h 1.343588 z"
         style="stroke-width:0.26458332;fill:#ffffff"
         id="path259" />
      <path
         d="m 77.547389,27.115905 q 0,0.346232 -0.08785,0.625284 -0.08785,0.273885 -0.232544,0.485759 -0.144694,0.206706 -0.335897,0.356567 -0.191202,0.144694 -0.403076,0.237712 -0.206705,0.09302 -0.423746,0.139526 -0.211874,0.04134 -0.403077,0.04134 h -2.423624 q -0.279053,0 -0.609782,-0.09819 -0.330729,-0.09818 -0.61495,-0.320394 -0.279052,-0.227376 -0.470255,-0.583943 -0.186035,-0.361736 -0.186035,-0.883667 v -1.819011 q 0,-0.516764 0.186035,-0.873331 0.191203,-0.361736 0.470255,-0.583944 0.284221,-0.227376 0.61495,-0.325562 0.330729,-0.09819 0.609782,-0.09819 h 2.423624 q 0.516765,0 0.8785,0.186035 0.361735,0.186035 0.583943,0.470256 0.222209,0.279053 0.320394,0.609782 0.103353,0.330729 0.103353,0.614949 z m -1.343587,-1.808676 q 0,-0.279052 -0.139526,-0.413411 -0.139527,-0.134359 -0.403077,-0.134359 H 73.24791 q -0.268717,0 -0.408244,0.139527 -0.139526,0.134358 -0.139526,0.397908 v 1.819011 q 0,0.263549 0.139526,0.403076 0.139527,0.139526 0.408244,0.139526 h 2.413289 q 0.273886,0 0.408244,-0.139526 0.134359,-0.139527 0.134359,-0.403076 z"
         style="stroke-width:0.26458332;fill:#ffffff"
         id="path261" />
    </g>
    <g
       aria-label="Live"
       style="font-style:normal;font-variant:normal;font-weight:normal;font-stretch:normal;font-size:10.58333302px;line-height:1.25;font-family:Audiowide;-inkscape-font-specification:Audiowide;letter-spacing:0px;word-spacing:0px;fill:#ffffff;fill-opacity:1;stroke:none;stroke-width:0.26458332"
       id="text16">
      <path
         d="m 104.04812,29.008591 h -6.128824 q -0.144694,0 -0.268717,-0.05168 -0.124024,-0.05168 -0.217041,-0.139526 -0.08785,-0.09302 -0.139527,-0.217041 -0.05168,-0.124024 -0.05168,-0.268718 v -6.733438 h 1.343587 v 6.066812 h 5.462198 z"
         style="stroke-width:0.26458332;fill:#ffffff"
         id="path244" />
      <path
         d="m 106.24954,22.275152 h -1.34359 v -1.214396 h 1.34359 z m 0,6.733439 h -1.34359 v -5.586222 h 1.34359 z"
         style="stroke-width:0.26458332;fill:#ffffff"
         id="path246" />
      <path
         d="m 114.20254,23.422369 q -0.22738,0.707967 -0.53227,1.395263 -0.30489,0.687297 -0.7028,1.312582 -0.39274,0.620117 -0.88366,1.152384 -0.48576,0.5271 -1.08004,0.914673 -0.58911,0.382405 -1.28674,0.604614 -0.69247,0.217041 -1.50379,0.217041 -0.13953,0 -0.26355,-0.05168 -0.12402,-0.05168 -0.21704,-0.139527 -0.093,-0.09302 -0.14469,-0.211873 -0.0517,-0.124024 -0.0517,-0.26355 v -4.929931 h 1.34359 v 4.201293 q 0.49092,0 0.94051,-0.211873 0.45475,-0.211873 0.85783,-0.558105 0.40307,-0.3514 0.74414,-0.795817 0.34623,-0.444418 0.61495,-0.909506 0.26871,-0.470255 0.45475,-0.91984 0.1912,-0.449585 0.28422,-0.806152 z"
         style="stroke-width:0.26458332;fill:#ffffff"
         id="path248" />
      <path
         d="m 120.6931,25.272385 q 0,0.279052 -0.0982,0.604614 -0.0982,0.320394 -0.32039,0.599447 -0.21704,0.273885 -0.57361,0.45992 -0.3514,0.186035 -0.85783,0.186035 h -2.42362 v -1.276408 h 2.42362 q 0.27389,0 0.42375,-0.165364 0.14986,-0.170533 0.14986,-0.41858 0,-0.263549 -0.17053,-0.413411 -0.16537,-0.149862 -0.40308,-0.149862 h -2.42362 q -0.27389,0 -0.42375,0.170533 -0.14986,0.165364 -0.14986,0.413411 v 1.875854 q 0,0.268718 0.16536,0.41858 0.17054,0.149861 0.41858,0.149861 h 2.41329 v 1.281576 h -2.42362 q -0.27906,0 -0.60462,-0.09819 -0.32039,-0.09819 -0.59944,-0.315226 -0.27389,-0.222208 -0.45992,-0.573608 -0.18604,-0.356568 -0.18604,-0.862997 v -1.886189 q 0,-0.279053 0.0982,-0.599447 0.0982,-0.325561 0.31522,-0.599446 0.22221,-0.279053 0.57361,-0.465088 0.35657,-0.186035 0.863,-0.186035 h 2.42362 q 0.27906,0 0.59945,0.09819 0.32556,0.09819 0.59945,0.320394 0.27905,0.217041 0.46508,0.573608 0.18604,0.3514 0.18604,0.857829 z"
         style="stroke-width:0.26458332;fill:#ffffff"
         id="path250" />
    </g>
    <g
       aria-label="4"
       style="font-style:normal;font-variant:normal;font-weight:normal;font-stretch:normal;font-size:14.11111069px;line-height:1.25;font-family:Audiowide;-inkscape-font-specification:Audiowide;letter-spacing:0px;word-spacing:0px;fill:#ffffff;fill-opacity:1;stroke:none;stroke-width:0.26458332"
       id="text24">
      <path
         d="m 88.334559,28.995979 h -1.80523 v -4.037651 h -6.366536 q -0.192926,0 -0.35829,-0.0689 -0.165365,-0.07579 -0.289388,-0.192926 -0.117134,-0.124023 -0.186036,-0.289388 -0.0689,-0.165364 -0.0689,-0.351399 v -4.940267 h 1.791449 v 4.037652 h 5.477702 v -4.037652 h 1.80523 z"
         style="stroke-width:0.26458332;fill:#ffffff"
         id="path241" />
    </g>
    <path
       style="stroke-width:0.19844876;fill:#ffffff"
       d="m 88.703506,25.193073 h 4.591316 v 1.777779 h -4.591316 z"
       id="rect60" />
    <path
       style="stroke-width:0.22972682;fill:#ffffff"
       d="m 88.703529,23.167927 h 6.152673 v 1.777779 h -6.152673 z"
       id="rect60-8" />
    <path
       style="stroke-width:0.14701578;fill:#ffffff"
       d="m 88.703506,27.218189 h 2.519814 v 1.777779 h -2.519814 z"
       id="rect60-9" />
    <path
       style="stroke-width:0.15101998;fill:#ffffff"
       d="m 88.703529,21.142811 h 2.658944 v 1.777779 h -2.658944 z"
       id="rect60-8-6" />
    <path
       style="stroke-width:0.19744395;fill:#ffffff"
       d="m 88.703506,19.117691 h 4.54494 v 1.777779 h -4.54494 z"
       id="rect60-8-4" />
  </g>
</svg>
