<?xml version="1.0" standalone="no"?>
<!DOCTYPE svg PUBLIC "-//W3C//DTD SVG 20010904//EN"
 "http://www.w3.org/TR/2001/REC-SVG-20010904/DTD/svg10.dtd">
<svg version="1.0" xmlns="http://www.w3.org/2000/svg"
 width="944.000000pt" height="944.000000pt" viewBox="0 0 944.000000 944.000000"
 preserveAspectRatio="xMidYMid meet">
<metadata>
Created by potrace 1.11, written by Peter Selinger 2001-2013
</metadata>
<g transform="translate(0.000000,944.000000) scale(0.100000,-0.100000)"
fill="#000000" stroke="none">
<path d="M0 6183 c1 -1026 4 -1544 11 -1578 19 -90 83 -208 149 -273 63 -63
188 -133 265 -148 22 -4 924 -8 2005 -9 l1965 -1 0 -52 c0 -29 3 -52 7 -52 3
0 4 -8 2 -17 -7 -31 -9 -143 -2 -143 3 0 4 -8 2 -17 -8 -35 -9 -143 -1 -143 5
0 6 -4 2 -10 -3 -5 -5 -71 -5 -147 1 -141 0 -183 -4 -218 -1 -11 1 -35 5 -53
4 -17 3 -34 -2 -37 -4 -3 -4 -16 1 -29 5 -13 6 -26 4 -29 -3 -3 -5 -60 -4
-128 1 -126 1 -168 -4 -204 -1 -11 1 -35 5 -53 4 -17 3 -34 -2 -37 -4 -3 -4
-16 1 -29 5 -13 6 -26 4 -29 -4 -4 -5 -109 -3 -262 0 -11 -1 -55 -3 -98 -2
-42 0 -77 4 -77 3 0 4 -8 2 -17 -7 -31 -9 -143 -2 -143 3 0 4 -8 2 -17 -7 -31
-9 -143 -2 -143 3 0 4 -8 2 -17 -6 -27 -10 -143 -4 -143 3 0 3 -22 2 -50 l-4
-50 546 0 c430 0 546 3 547 13 0 6 0 1351 1 2987 l0 2975 -546 3 -546 2 -1
-42 c0 -24 0 -81 1 -128 2 -84 1 -126 -4 -165 -1 -11 1 -35 5 -53 4 -17 3 -34
-2 -37 -4 -3 -4 -16 1 -29 5 -13 6 -26 4 -29 -3 -3 -5 -58 -4 -123 3 -345 2
-481 -4 -529 -1 -11 1 -35 5 -53 4 -17 3 -34 -2 -37 -4 -3 -4 -16 1 -29 5 -13
6 -26 4 -29 -3 -3 -5 -60 -4 -128 1 -126 1 -168 -4 -204 -1 -11 1 -35 5 -53 4
-17 3 -34 -2 -37 -4 -3 -4 -16 1 -29 5 -13 6 -26 4 -29 -3 -3 -5 -58 -4 -123
3 -335 2 -465 -3 -534 l-2 -24 -1648 -1 c-907 0 -1652 2 -1656 5 -4 3 -7 552
-6 1220 l0 1215 -543 3 -542 2 0 -1527z"/>
<path d="M5717 7703 c-3 -7 -2 -1012 2 -1054 1 -15 119 -16 1374 -15 l1372 1
1 538 0 537 -1372 0 c-755 0 -1374 -3 -1377 -7z"/>
<path d="M5721 6480 c-8 -6 -8 -1051 1 -1065 4 -7 278 -9 795 -8 433 1 793 2
798 2 13 1 14 1055 2 1067 -8 9 -1584 12 -1596 4z"/>
<path d="M5717 5246 c-1 -6 -3 -247 -3 -536 l1 -525 1863 -2 1862 -2 0 538 0
538 -1860 0 c-1326 0 -1860 -3 -1863 -11z"/>
<path d="M5795 4030 l-80 -5 0 -535 0 -535 1387 0 c764 0 1389 2 1389 5 1 3 2
245 3 538 l1 532 -100 0 c-1104 4 -2539 4 -2600 0z"/>
<path d="M5716 2800 c-1 -3 -2 -243 -1 -535 l1 -530 762 -3 c606 -2 762 0 763
10 2 70 0 220 -4 224 -3 3 -2 18 2 32 4 15 6 45 4 67 -2 22 -3 47 -3 55 0 8 0
121 0 250 1 129 0 237 -1 240 -1 3 0 10 1 15 2 9 3 128 1 165 -1 14 -84 16
-762 16 -418 0 -761 -3 -763 -6z"/>
</g>
</svg>
