<svg version="1" xmlns="http://www.w3.org/2000/svg" width="1066.667" height="1066.667" viewBox="0 0 800.000000 800.000000"><path d="M32.3 205.7c.1 113.2.6 206.9.9 208.3 1.7 7.3 2 8.7 3 11.5.6 1.6 1.9 4.9 2.9 7.2 1.1 2.4 1.9 4.7 1.9 5.3 0 .5.5 1 1 1 .6 0 1 .5 1 1.1 0 4.3 21.6 26.9 25.8 26.9.6 0 1.2.4 1.4.8.6 1.5 14 7.3 21.7 9.4 7.6 2.1 8.7 2.1 262.1 2.2l254.5.1.1 159.5c.1 87.7.2 159.8.3 160.2.1.5 35.9.8 79.6.8H768V0l-79.7.2-79.7.3v159.7c0 132.8-.2 159.8-1.4 160.3-.8.3-1 0-.6-.7.5-.7.3-.8-.7-.2-2 1.2-75.9 1.2-75.9-.1 0-.7-.3-.6-.8 0-.4.7-9.3 1-23.7 1-14.4 0-23.3-.3-23.7-1-.5-.7-.8-.7-.8 0 0 1.2-31.9 1.3-33.7.2-.7-.4-1.4-.4-1.6.1-.7.9-28.8.9-30.4-.1-.6-.4-1.4-.4-1.6 0-.4.7-74.3.9-75.7.3-.3-.1-.9-.1-1.5 0-2.5.7-44.2.5-45.6-.2-.9-.4-1.9-.4-2.3-.1-.9.9-92.5 1-93.9.1-.6-.4-1.7-.2-2.4.4-.7.6-1.4.7-1.5.2-.1-.5-.2-72-.4-158.9-.1-86.9-.3-158.8-.3-159.8C190 .1 185.5 0 111 0H32l.3 205.7z"/></svg>